<svg width="40" height="40" viewBox="0 0 40 40" fill="none" xmlns="http://www.w3.org/2000/svg">
  <rect width="40" height="40" rx="8" fill="url(#gradient)"/>
  <path d="M8 20C8 13.3726 13.3726 8 20 8C26.6274 8 32 13.3726 32 20C32 26.6274 26.6274 32 20 32C13.3726 32 8 26.6274 8 20Z" fill="white" fill-opacity="0.9"/>
  <path d="M15 15C15 13.8954 15.8954 13 17 13H23C24.1046 13 25 13.8954 25 15V17C25 18.1046 24.1046 19 23 19H17C15.8954 19 15 18.1046 15 17V15Z" fill="white"/>
  <path d="M15 21C15 19.8954 15.8954 19 17 19H23C24.1046 19 25 19.8954 25 21V23C25 24.1046 24.1046 25 23 25H17C15.8954 25 15 24.1046 15 23V21Z" fill="white"/>
  <path d="M17 22H19M21 22H23" stroke="url(#gradient)" stroke-width="1" stroke-linecap="round"/>
  <defs>
    <linearGradient id="gradient" x1="0" y1="0" x2="40" y2="40" gradientUnits="userSpaceOnUse">
      <stop stop-color="#2563eb"/>
      <stop offset="1" stop-color="#7c3aed"/>
    </linearGradient>
  </defs>
</svg>
